# xmcd
# Track frame offsets:
# 150
# 23010
# 45739
# 64695
# 85385
# 109047
# 136702
# 157710
# 187675
# 208577
# 226555
# 250540
# 269090
# 298132
#
# Disc length: 4287 seconds
# Revision: 0
# Processed by: cddbd v1.5.2PL0 Copyright (c) Steve Scherf et al.
# Submitted via: VisiTrax 2.11.1.266 - For more info visit www.synapsa.com
#
DISCID=af10bd0e
DTITLE=Lucile and the Steamers - Lucile and the Steamers
DYEAR=1900
DGENRE=
TTITLE0=Voodoo Man
TTITLE1=Nadine
TTITLE2=Tell Me Why Young Men Go Wild
TTITLE3=Bopin wit the Blues
TTITLE4=Fury
TTITLE5=Without You
TTITLE6=I'm a Good Woman
TTITLE7=Still Got the Blues
TTITLE8=Ain't Gonna Be My Man
TTITLE9=She's Crazy
TTITLE10=Sweet Lover
TTITLE11=True Lovin' Woman
TTITLE12=Damn Your Eyes
TTITLE13=I Can't Let Go
EXTD=
EXTT0=
EXTT1=
EXTT2=
EXTT3=
EXTT4=
EXTT5=
EXTT6=
EXTT7=
EXTT8=
EXTT9=
EXTT10=
EXTT11=
EXTT12=
EXTT13=
PLAYORDER=
